<?xml version="1.0" encoding="UTF-8"?>
<svg xmlns="http://www.w3.org/2000/svg" xmlns:xlink="http://www.w3.org/1999/xlink" height="16px" viewBox="0 0 16 16" width="16px"><filter id="a" height="100%" width="100%" x="0%" y="0%"><feColorMatrix in="SourceGraphic" type="matrix" values="0 0 0 0 1 0 0 0 0 1 0 0 0 0 1 0 0 0 1 0"/></filter><mask id="b"><g filter="url(#a)"><path d="m 0 0 h 16 v 16 h -16 z" fill-opacity="0.3"/></g></mask><clipPath id="c"><path d="m 0 0 h 1600 v 1200 h -1600 z"/></clipPath><mask id="d"><g filter="url(#a)"><path d="m 0 0 h 16 v 16 h -16 z" fill-opacity="0.05"/></g></mask><clipPath id="e"><path d="m 0 0 h 1600 v 1200 h -1600 z"/></clipPath><mask id="f"><g filter="url(#a)"><path d="m 0 0 h 16 v 16 h -16 z" fill-opacity="0.05"/></g></mask><clipPath id="g"><path d="m 0 0 h 1600 v 1200 h -1600 z"/></clipPath><mask id="h"><g filter="url(#a)"><path d="m 0 0 h 16 v 16 h -16 z" fill-opacity="0.05"/></g></mask><clipPath id="i"><path d="m 0 0 h 1600 v 1200 h -1600 z"/></clipPath><mask id="j"><g filter="url(#a)"><path d="m 0 0 h 16 v 16 h -16 z" fill-opacity="0.05"/></g></mask><clipPath id="k"><path d="m 0 0 h 1600 v 1200 h -1600 z"/></clipPath><mask id="l"><g filter="url(#a)"><path d="m 0 0 h 16 v 16 h -16 z" fill-opacity="0.05"/></g></mask><clipPath id="m"><path d="m 0 0 h 1600 v 1200 h -1600 z"/></clipPath><mask id="n"><g filter="url(#a)"><path d="m 0 0 h 16 v 16 h -16 z" fill-opacity="0.05"/></g></mask><clipPath id="o"><path d="m 0 0 h 1600 v 1200 h -1600 z"/></clipPath><mask id="p"><g filter="url(#a)"><path d="m 0 0 h 16 v 16 h -16 z" fill-opacity="0.3"/></g></mask><clipPath id="q"><path d="m 0 0 h 1600 v 1200 h -1600 z"/></clipPath><mask id="r"><g filter="url(#a)"><path d="m 0 0 h 16 v 16 h -16 z" fill-opacity="0.5"/></g></mask><clipPath id="s"><path d="m 0 0 h 1600 v 1200 h -1600 z"/></clipPath><path d="m 2.96875 1 c -1.089844 0 -1.96875 0.878906 -1.96875 1.96875 v 9.0625 c 0 1.089844 0.878906 1.96875 1.96875 1.96875 h 3.027344 l 2.003906 2.007812 l 2.007812 -2.007812 h 3.023438 c 1.089844 0 1.96875 -0.878906 1.96875 -1.96875 v -9.0625 c 0 -1.089844 -0.878906 -1.96875 -1.96875 -1.96875 z m 7.445312 3 c 1.09375 0.03125 2.0625 0.734375 2.429688 1.765625 c 0.371094 1.035156 0.066406 2.191406 -0.761719 2.910156 l -4.078125 3.628907 l -4.074218 -3.628907 c -1.097657 -0.980469 -1.195313 -2.660156 -0.21875 -3.757812 c 0.976562 -1.097657 2.660156 -1.195313 3.757812 -0.21875 l 0.535156 0.476562 l 0.539063 -0.476562 c 0.507812 -0.464844 1.179687 -0.714844 1.871093 -0.699219 z m 0 0" fill="#ffffff"/><g clip-path="url(#c)" mask="url(#b)" transform="matrix(1 0 0 1 -620 -440)"><path d="m 562.460938 212.058594 h 10.449218 c -1.183594 0.492187 -1.296875 2.460937 0 3 h -10.449218 z m 0 0" fill="#ffffff"/></g><g clip-path="url(#e)" mask="url(#d)" transform="matrix(1 0 0 1 -620 -440)"><path d="m 16 748 h 1 v 1 h -1 z m 0 0" fill="#ffffff" fill-rule="evenodd"/></g><g clip-path="url(#g)" mask="url(#f)" transform="matrix(1 0 0 1 -620 -440)"><path d="m 17 747 h 1 v 1 h -1 z m 0 0" fill="#ffffff" fill-rule="evenodd"/></g><g clip-path="url(#i)" mask="url(#h)" transform="matrix(1 0 0 1 -620 -440)"><path d="m 18 750 h 1 v 1 h -1 z m 0 0" fill="#ffffff" fill-rule="evenodd"/></g><g clip-path="url(#k)" mask="url(#j)" transform="matrix(1 0 0 1 -620 -440)"><path d="m 16 750 h 1 v 1 h -1 z m 0 0" fill="#ffffff" fill-rule="evenodd"/></g><g clip-path="url(#m)" mask="url(#l)" transform="matrix(1 0 0 1 -620 -440)"><path d="m 17 751 h 1 v 1 h -1 z m 0 0" fill="#ffffff" fill-rule="evenodd"/></g><g clip-path="url(#o)" mask="url(#n)" transform="matrix(1 0 0 1 -620 -440)"><path d="m 19 751 h 1 v 1 h -1 z m 0 0" fill="#ffffff" fill-rule="evenodd"/></g><g clip-path="url(#q)" mask="url(#p)" transform="matrix(1 0 0 1 -620 -440)"><path d="m 136 776 v 7 h 7 v -7 z m 0 0" fill="#ffffff"/></g><g clip-path="url(#s)" mask="url(#r)" transform="matrix(1 0 0 1 -620 -440)"><path d="m 219 758 h 3 v 12 h -3 z m 0 0" fill="#ffffff"/></g></svg>
